<svg xmlns="http://www.w3.org/2000/svg" viewBox="0 0 4055 4962"><defs><style>.b,.d,.g{fill:none}.b,.d,.e{stroke:#1d1d1b}.b,.e,.g,.h{stroke-linecap:round;stroke-linejoin:round}.b,.g{stroke-width:4px}.c,.e{fill:#1d1d1b}.d{stroke-miterlimit:10;stroke-width:3px}.e,.h{stroke-width:.25px}.g,.h{stroke:#00b1aa}.h{fill:#00b1aa}</style><pattern id="a" width="1272" height="1081" patternTransform="translate(-1279 -216)" patternUnits="userSpaceOnUse"><path fill="none" d="M0 0h1272v1081H0z"/><path d="M1171 67c-5-23 39-39 48-11 5 16-28 45-15 45 29 0 45 52 6 45M1147 70c-9-21-55-10-47 18 5 16 49 21 39 29-25 16-9 67 19 40" class="b"/><path d="M1175 36s-8 18-9 23 7 28 9 39 10 51 8 53-5 2-8 0-5-13-9-23-7-49-8-55V58c0-3-18-14-18-14M753 394c-2-2 6-23 12-33l19-34c4-8 11-18 17-22s15 0 15 0 4 2 7 9 0 13 0 19-10 13-12 17-8 5-14 11l-21 18c-6 5-22 18-23 15zM812 294s-2-40 0-43 11 13 11 13l26-13c3 0 0 16 0 16s15-2 19 0-7 19-8 22-27 16-27 16M772 354q13-5 16 5M784 334c9 0 16 4 20 12M795 321q14-1 19 12M838 92c8-5 19-31 24-32s7 43 7 43 2 26 0 34-33 36-42 41c-8 5-17 9-22 10-12 1-19-3-30-9s-42-29-44-40 0-25 0-29l3-21s1-27 7-29 19 20 24 23 16 10 26 10 13-4 19-3 20 7 28 2z" class="b"/><path d="M749 110s-2-17 0-18 15 9 15 9M843 110s7-13 10-13 3 18 3 18M834 138c5 18-26 40-33 17v-15c1-2 7-3 8-4a8 8 0 0 0 0-7c-1-2-14-2-16 0s-1 5 0 7l6 4c1 1 0 13-1 15-7 17-36 2-30-15" class="b"/><circle cx="775" cy="117" r="4" class="c"/><circle cx="823" cy="117" r="4" class="c"/><path d="M712 418c-9-61-94-71-86 5 1 12-3 51-3 51-6 34-6 27-6 35s-1 30 8 34 14 4 21 3 1-32 8-36 20-14 25-14" class="b"/><path d="M691 425c-11-41-49-17-38 15 0 0-16 27-2 34 7 4 19 0 19 0M92 217c7 2 22 9 29 15s9 32 9 32 0 19-2 25-15 20-20 24-28 4-35 3-21-4-26-10-14-17-17-23-4-18 0-29 10-17 16-22 14-10 20-12 19-6 26-3z" class="b"/><path d="M62 250s5-8 9-9 8 9 8 9M96 270s7 7 7 10-7 9-7 9" class="b"/><path d="M71 242v38c0 3 30 0 30 0M436 919c2-2 79-31 84-29s21 65 21 75-54 20-63 24c-27 6-43-57-42-70zM534 907c40-3 50 29 16 49M545 941c18-10 15-24-5-20M432 894s3-10 0-13-8-2-11-5 6-16 6-16M456 890s2-10 0-13-7-2-11-5 6-16 6-16M483 880s3-8 0-12-9-2-12-6 6-16 6-16M507 873v-13c0-3-11-3-12-5s6-16 6-16M276 852s17-32 23-34 44-4 49-4 40 14 41 18-37 100-40 100-75-76-73-80 32 0 34 1 34-5 41-6 31-10 31-10" class="b"/><path d="M335 814s16 25 17 31-4 83-4 83M320 817s-9 32-9 37 37 77 37 77M693 1074c17-7 19-9 28-28s8-42 5-55-25-28-39-35-35-9-48-6-29 16-36 31-11 37-8 52 8 27 15 35 11 11 28 11 38 1 55-5zM84 52c-3-4-6 70-5 74s153 12 159 9 13-85 5-87-90 57-97 54-66-47-61-54 148-6 156 0" class="b"/><path d="M1267 511c4-2 3-8 2-14a67 67 0 0 1-1-11l-1-9c0-7-1-14 1-20s2-17 2-26l1-9a46 46 0 0 1 0-5v-12a21 21 0 0 0-4-8c-1-2-2-4-2-9 0-39-20-54-37-55-12 0-23 5-32 15-6 7-12 17-16 33v-3c0-8 0-21-3-26l-2-5c-5-13-9-24-14-27-7-4-18-2-28 0-23 4-29 16-28 25 1 6 5 12 12 16 8 4 18 6 30 5a4 4 0 0 1 3 1c4 5 7 18 6 27l-4 30c-6 36-11 66-9 73 4 11 15 11 21 11h2c6 0 9-4 12-9l1-1c2-4 2-14 2-30 0-11 0-29 2-31 1-1 6-2 20-3 19-1 37 2 40 4s0 23-2 36c-3 21-3 30 0 32 4 3 13 7 20 7a11 11 0 0 0 6-2zm-22-37c3-24 4-35 1-39-5-5-29-5-43-5-13 1-21 2-23 4-3 4-3 15-3 34l-1 27-1 2c-4 5-5 7-9 7h-2c-6 0-14 0-17-8-2-7 4-46 8-71l5-30c0-9-2-24-8-30a8 8 0 0 0-6-3c-22 1-36-8-37-18-1-7 5-16 25-20 9-2 19-4 25-1 4 3 9 17 12 25l2 6c2 4 3 17 3 25a55 55 0 0 0 1 7v4c1 5 1 7 3 7l3-3c2-38 25-57 45-57 15 1 33 15 32 51 0 7 2 9 4 11a17 17 0 0 1 3 7v10a48 48 0 0 0 0 6l-1 9c0 8 0 19-2 25s-1 14-1 21l1 9a71 71 0 0 0 1 11v11c-4 2-17-1-22-5-1-2 1-18 2-29z" class="c"/><path d="M941 778c1 8 50 4 51-2 12-123-73-115-51 2z" class="b"/><path d="M961 680c14-3 23-16 20-25-1-4-20-37-20-36s-8-12-12-11-12 29-12 29l-6 22c-4 9 14 23 30 21zM961 687v-7" class="b"/><path d="M1003 477c32-14 45-43 44-66 0-15-7-26-16-29-16-5-34 12-44 24-2-3-6-9-11-13l-3-2c-5-4-11-9-19-10-10-2-17 1-26 9s-5 22 9 41a176 176 0 0 0 36 35c12 9 20 12 25 12a9 9 0 0 0 5-1zm-50-92c7 1 12 5 18 9l3 2c6 5 11 15 11 15l2 2 2-2c20-27 34-27 40-25 8 2 14 12 14 25 1 22-12 49-42 62a6 6 0 0 1-3 1c-12 0-40-22-58-45-6-8-19-28-9-36 6-6 12-8 18-8a28 28 0 0 1 4 0z" class="c"/><path d="M828 524c-108-17-53 126-19 115 29-10 17 8 41 0 35-11 74-133-22-115z" class="d"/><path d="M826 522q3-34 43-38c-2 18-13 32-43 38z" class="d"/><path d="M820 523l-11-24 6-4 13 29-8-1z" class="d"/><path d="M323 684c-14 10-18 21 5 40q31-20-5-40z" class="b"/><path d="M330 688q91-60 73 14c7 35-8 46-63 13M312 693c-51-41-75-39-71 8-19 50 7 54 76 14M682 826c-16 21 4 57 31 44s6-49-31-44zM780 849q108-24 114 21c-11 28-56 18-116-7" class="b"/><path d="M721 841c28-13 51-17 59 11-4 26-31 27-67 18M733 874v25M744 876v24M759 874v25M796 871v28M815 878v21M825 880v19M801 873v26M696 826c7 0-18-41-24-41M682 826l-38-28" class="b"/><circle cx="642" cy="793" r="8" class="c"/><circle cx="671" cy="781" r="8" class="c"/><path d="M911 1067V947M995 943h-79l4 116 115-17-40-99z" class="b"/><path d="M1035 1042l-128 30V949l9-6-5 124 124-25 101-21c2 0-52-99-52-99l-89 21M938 968a131 131 0 0 1 45-4M1031 966a131 131 0 0 1 45-4M944 986c18-4 34-7 47-5M1030 959c17-4 34-7 46-5M953 1007c15-5 30-8 48-6M1040 975c14-5 30-8 47-6M1026 953c15-5 30-8 48-6" class="b"/><path d="M203 266c2-4 0-24 0-24 0-49 7-80 40-75 6 1 22 3 22 15" class="d"/><path d="M203 242c0-2 58-69 58-69l126 35-56 69z" class="d"/><path d="M394 256c0-8-7-48-7-48-34-12-54 8-56 69l6 27" class="d"/><path d="M46 720c8-2 121 72 124 77s-38 66-43 68S-2 792 2 785s35-63 44-65zM90 734s8-22 12-21 35 19 37 26-12 20-12 20" class="b"/><circle cx="85" cy="792" r="27" class="b"/><path d="M1007 158c10 2 33 10 41 18s12 28 12 36 0 22-4 29-28 31-39 35-26 5-36 3-30-12-36-17-11-19-14-28 4-38 7-47 23-19 35-24 23-7 34-5zM994 256v-7M1021 246v6M1035 235v-7M1032 211v-10M1003 185v-7M974 195v-10M962 215l-2 9M966 240l4 6" class="b"/><circle cx="998" cy="215" r="23" class="b"/><path d="M439 529c52-8 93-7 93 26-13 3-37 0-59 3-63 11-96 2-34-29z" class="b"/><path d="M406 555s-9 44 2 52 114 2 124-3 0-49 0-49" class="b"/><path d="M404 569s14-5 19-5 1 10 11 10 11-11 16-11 5 19 19 17 12-20 18-20 5 15 18 13 8-15 14-15 15 11 15 11M502 497c10-2 8-12 0-25-10 14-13 24 0 25zM468 497c10-2 8-12 0-25-10 14-13 24 0 25zM430 508c11-3 8-12 0-26-10 14-13 24 0 26zM468 497l1 43M502 497v41M430 508l2 36M716 687a63 63 0 1 1-63-63 63 63 0 0 1 63 63zM600 653c31 33 64 59 103 73M714 670c-26 18-47 46-66 80M662 624c-14 26-39 47-71 66" class="b"/><path d="M699 644l-37 30-41 36-10 23M299 404l33-4c-26 84-177 114-173 0 18-85 67-58 67 0l97-44c-16 41-34 80-101 86" class="b"/><path d="M165 381l-29 11 23 8" class="b"/><circle cx="190" cy="381" r="6" class="c"/><path d="M204 472v32M234 475v29M1138 558c86-17 148 93 0 107-8-38-9-74 0-107zM1138 558c-76-10-127 79 0 107" class="b"/><path d="M1138 582l7-4c4 0 4 1 7 3a30 30 0 0 0 9 2c8 2 17 4 24 1 3-1 2-6-1-5-5 2-11 1-16 0l-13-2c-3-2-5-5-9-4l-10 4c-3 2-1 6 2 5zM1137 619a9 9 0 0 1 8-7l8 2c4 1 6 0 8-4 5-7 8 2 12 3s11-6 15-8c2-2 0-6-3-5-2 2-9 8-11 8l-5-5c-4-2-8 0-11 3l-3 4-5-2a14 14 0 0 0-8 0 14 14 0 0 0-10 10c-1 3 4 4 5 1zM1137 648c5-6 16 1 22 1s10-2 13-7c2-2 2-4 5-4a19 19 0 0 1 4 1l8-1c7-2 3-9 6-14 2-3-2-6-4-3s-2 5-2 8 0 5-4 5l-5-1c-5 0-9 0-11 5-3 4-4 6-10 6-4 0-7-1-11-3-5-1-10-1-14 3-2 3 1 6 3 4z" class="c"/><path d="M1132 577c-3 0-6 1-7-3l-2-4c-4-4-9-6-14-9-2-2-5 3-2 4l9 6c3 2 3 5 5 8 3 4 8 4 12 3 3-1 2-6-1-5zM1133 594c-5-3-6-7-13-5l-4 1c-2 1-3-1-5-2l-7-2a3 3 0 0 0-2-3 28 28 0 0 1-10-4c-3-1-5 3-2 4a32 32 0 0 0 11 4l-2-3a5 5 0 0 0 3 6c2 2 5 1 6 3a9 9 0 0 0 4 2c3 1 5 0 8-1s4-1 7 1a25 25 0 0 0 4 4c2 2 5-3 2-4zM1128 606a54 54 0 0 0-30 3l-6 3-3-3a7 7 0 0 0-8-3c-3 1-1 6 2 5 2-1 3 5 5 6s6-1 8-2c10-4 20-6 31-5 3 1 4-4 1-4zM1129 616a6 6 0 0 0-7 2 13 13 0 0 0-1 4c-2 3-3 4-7 4-3 0-6-1-9 1-4 1-7 5-11 4-3 0-3 5 0 5l9-2c3-3 6-3 10-3 3 0 6 0 8-2 2-1 5-9 6-8 4 0 5-4 2-5zM1135 636c8-5 15 0 24-3a44 44 0 0 0 17-11c2-3-1-6-3-4-6 6-14 12-22 11-7-1-12-1-19 2-3 2 0 6 3 5z" class="c"/><path d="M1135 603c2-2 7 0 10-1a11 11 0 0 0 6-5l1-4c1-2 3-1 5-1a18 18 0 0 0 10-2c3-1 0-6-3-4a13 13 0 0 1-9 1 9 9 0 0 0-4 0c-2 0-3 2-4 4-1 5-4 6-9 6-2 0-4 0-6 2-2 3 1 6 3 4zM1142 566h12c5 0 6 5 9 7 7 5 15 4 22 0 3-1 6-1 7 2l4 7c3 6 7 11 4 17s1 10 7 12c3 0 5-5 1-5-2-1-5-1-4-4l2-5c1-4-1-8-2-11l-8-15c-1-2-3-5-6-5-4 0-8 4-12 5-5 1-11 1-14-4-2-3-4-5-8-6h-13c-3-1-5 4-1 5zM1129 642h-15c-3 0-4 0-5-2a11 11 0 0 0-4-4 8 8 0 0 0-8 1l-2 3c0 1 0 1 0 0a12 12 0 0 1-3-2l-7-8a21 21 0 0 0-4-2 17 17 0 0 0-2-1q-2 0-1-2c1-2 2-2 0-5-2-4-5-6-6-11 0-4-5-2-4 1a23 23 0 0 0 4 11l2 2c0-1 0 0 0 0l-1 4c0 3 3 4 5 5 5 2 7 5 10 8 2 2 5 5 8 5a4 4 0 0 0 2-1l1-1 5-1 4 4a8 8 0 0 0 4 1h17c3 0 3-5 0-5zM1124 598h-16c-4 0-12 1-16-1l-5-4c-2-1-5-1-6-3v-2l-1-4-2 2 1-1c3-1 1-6-2-5l-2 4a7 7 0 0 0 0 2 2 2 0 0 0 1 1 3 3 0 0 0-1 1c0 6 4 6 9 9 2 2 4 5 6 5l9 1h25c3 0 3-5 0-5z" class="c"/><ellipse cx="476" cy="355" class="b" rx="93" ry="38"/><path d="M517 320c7 16 3 30-6 43 1-15-1-32-13-47M482 317c7 15 3 32-5 45 0-16-3-29-15-44M449 318c6 16 4 36-5 49 1-15-3-28-14-44M97 512c-3 7 8 94 8 94l98-34c8-32 18-40 17-1 26-5 22 8 4 12 20-8 31 4 3 11 23-6 27 0 4 8 18-6 24 2 3 6-14 7-28 12-40 1L88 647 41 524M330 106l14-60 57 12s5-57 12-56l139 30-28 116z" class="b"/><circle cx="398" cy="126" r="15" class="c"/><circle cx="482" cy="144" r="15" class="c"/><path d="M462 40l-3 16-29-6-4 16 29 6-5 23 18 4 5-23 23 5 4-18-24-3 5-22-18-4-1 6zM562 202s34 83 36 82l19-8-19-33 20-13s-6-10-8-10l-22 10-9-19 28-15s-7-16-11-15-34 21-34 21zM608 174l40 88 14-6-15-32 12-5 14 31 11-5-40-89-11 5 19 45-12 5-19-42z" class="b"/><path d="M1106 870l42-117a2 2 0 0 0 0-2c0-1 0-3-23-14l-1-1-90 82 16 21 37-44 14 10-20 48 24 20zm0-67l-19-14-37 44-11-14 86-78 19 11-41 114-17-14zm42-50zm-4-2a2 2 0 0 1 1 0 5 5 0 0 0-1 0z" class="e"/><path d="M1130 754l-4 2c-1 0-23 13-31 22l-1 1 25 21zm-6 8l-7 31-17-14c6-6 18-14 24-17zM1174 903v-1c-21-20-29-40-22-56 8-18 35-26 71-23h1l10-19h-2c-45-16-82 4-96 31-11 22-9 56 31 84l2 1zm54-96l-6 12c-37-3-65 6-73 26-8 17 0 38 21 59l-3 10c-36-26-37-57-27-77s32-35 61-35a90 90 0 0 1 27 5z" class="e"/><path d="M97 992l33 10M210 988s34-70 39-73 41 12 41 12M81 945s100-34 105-34 22 34 22 34" class="b"/><circle cx="171" cy="1005" r="43" class="b"/><circle cx="56" cy="978" r="43" class="b"/></pattern></defs><path fill="url(#a)" stroke="#1d1d1b" stroke-miterlimit="10" d="M1 1h4054v4961H1z"/><path d="M347 2699s34 83 37 81l18-8-19-33 21-12s-6-11-9-11-22 10-22 10l-8-19 28-14s-8-16-11-15l-35 21zM394 2670l39 88 14-6-14-32 11-5 15 32 11-5-40-90-11 5 19 45-13 5-18-41zM108 3180c-14 9-18 21 5 40q31-20-5-40z" class="g"/><path d="M115 3184q91-60 73 14c6 35-8 46-63 13M97 3189c-51-41-75-39-71 8-19 50 7 54 76 14M348 1617s34 83 36 82l19-8-19-33 20-13s-6-10-8-10l-22 10-9-19 28-15s-7-16-11-15-34 21-34 21zM394 1589l40 88 14-6-15-32 12-5 14 31 11-5-40-89-11 5 19 45-12 5-19-42z" class="g"/><path d="M890 2288l-23-20 20-48-14-10-37 44-16-21 90-82 1 1c22 11 23 13 23 14a2 2 0 0 1 0 2l-43 117zm-19-21l17 14 42-114-19-11-86 78 11 14 36-44 20 14zm62-99zm-3-2z" class="h"/><path d="M905 2215l-25-21 1-1c8-9 30-22 31-22l4-2zm-19-21l16 14 8-31c-7 3-18 11-24 17zM955 2335l-2-1c-40-28-42-62-31-84 14-27 51-47 96-31h2l-10 19h-1c-36-3-63 6-71 24-7 15 1 35 21 55l1 1zm32-118c-29 0-51 15-61 35-11 20-9 51 27 77l3-10c-22-21-29-42-22-59 9-19 37-29 74-26l6-12a91 91 0 0 0-27-5zM890 4451l-24-20 21-49-14-10-37 45-17-21 91-82h1c22 12 23 14 23 15a2 2 0 0 1-1 2l-42 117zm-19-22l17 15 41-114-19-12-85 78 11 14 36-43 19 14zm62-98zm-3-3a2 2 0 0 0 0 1 5 5 0 0 1 0-1z" class="h"/><path d="M905 4378l-25-21 1-2c8-9 29-21 30-21l4-3zm-20-21l17 14 7-32c-6 4-18 11-24 18zM955 4498l-3-1c-39-28-41-62-30-85 14-27 51-46 95-31l3 1-10 18h-2c-36-3-62 6-70 24-7 16 1 36 21 56l1 1zm31-118c-28 0-51 15-60 34-11 21-9 52 26 78l3-10c-21-21-28-42-21-59 9-20 36-30 73-27l7-12a90 90 0 0 0-28-4z" class="h"/><path d="M3158 857c-109-17-54 127-20 115 30-10 17 8 42 0 34-10 74-132-22-115z" class="g"/><path d="M3156 855q2-34 43-38c-2 18-13 32-43 38z" class="g"/><path d="M3150 856l-11-24 5-4 14 29-8-1zM1885 4102c-109-17-53 126-20 115 30-10 18 8 42 0 34-11 74-133-22-115z" class="g"/><path d="M1883 4100q3-35 43-38c-2 18-13 31-43 38z" class="g"/><path d="M1877 4101l-11-24 5-5 14 30-8-1zM347 3780s34 83 37 82l18-9-19-32 21-13s-6-11-9-10l-22 10-9-19 28-15s-7-16-11-15-34 21-34 21zM393 3751l40 88 14-6-14-31 11-5 14 31 12-5-41-89-10 5 19 45-13 4-18-41zM2891 4861s34 83 36 82l19-8-19-33 20-13s-6-10-8-10l-22 10-9-19 28-15s-7-16-11-15-34 21-34 21zM2937 4833l40 88 14-7-15-31 12-5 14 31 11-5-40-89-11 5 19 45-12 5-18-42zM1619 2699s34 83 37 81l18-8-19-33 20-12s-6-11-8-11l-22 10-9-19 28-14s-7-17-11-15l-34 21zM1665 2670l40 88 14-6-14-32 11-5 14 32 12-5-41-90-11 5 20 45-13 5-18-41zM2891 2699s34 82 36 81l19-8-19-33 20-12s-6-11-8-11l-22 10-9-19 28-14s-7-17-11-15l-34 21zM2937 2670l40 88 14-6-15-32 12-5 14 32 11-6-40-89-11 5 19 45-12 5-19-42zM2890 3780s34 83 37 82l18-8-19-33 21-13s-6-10-9-10-22 10-22 10l-8-19 28-15s-8-16-11-15l-35 21zM2937 3752l39 88 14-7-14-31 11-5 14 31 12-5-40-89-11 5 19 45-13 5-18-42zM1619 3780s34 83 36 82l19-8-19-33 20-13s-6-10-8-10l-22 10-9-19 28-15s-7-16-11-15-34 21-34 21zM1665 3752l40 88 14-7-15-31 12-5 14 31 11-5-40-89-11 5 19 45-12 5-18-42zM1619 4861s34 83 36 82l19-8-19-33 20-13s-6-10-8-10l-22 10-9-19 28-15s-7-16-11-15-34 21-34 21zM1665 4833l40 88 14-7-15-31 12-5 14 31 11-5-40-89-11 5 19 45-12 5-18-42zM347 4861s34 83 36 82l19-8-19-33 20-13s-6-10-8-10l-22 10-9-19 28-15s-7-16-11-15-34 21-34 21zM393 4833l40 88 14-7-15-31 12-5 14 31 11-5-40-89-11 5 19 45-12 5-18-42zM348 536s34 83 36 82l19-8-19-33 20-13s-6-10-8-10l-22 10-9-19 28-15s-7-16-11-15-34 21-34 21zM394 508l40 88 14-7-15-31 12-5 14 31 11-5-40-89-11 5 19 45-12 5-18-42zM1619 536s34 83 36 82l19-8-19-33 20-13s-6-10-8-10l-22 10-9-19 28-15s-7-16-11-15-34 21-34 21zM1665 508l40 88 14-7-15-31 12-5 14 31 11-5-40-89-11 5 19 45-12 5-18-42zM2891 536s34 83 36 82l19-8-19-33 20-13s-6-10-8-10l-22 10-9-19 28-15s-7-16-11-15-34 21-34 21zM2937 508l40 88 14-7-15-31 12-5 14 31 11-5-40-89-11 5 19 45-12 5-18-42zM2375 3216c8-2 121 72 124 77s-38 66-43 68-129-73-125-80 35-63 44-65zM2419 3230s8-22 12-21 35 19 37 26-12 20-12 20" class="g"/><circle cx="2414" cy="3288" r="27" class="g"/><path d="M1154 3488l33 9M1267 3484s34-70 39-73 42 12 42 12M1139 3441s99-34 104-34 22 33 22 33" class="g"/><circle cx="1228" cy="3501" r="43" class="g"/><circle cx="1114" cy="3474" r="43" class="g"/><path d="M3697 245l33 9M3810 241s34-70 39-73 42 12 42 12M3682 198s99-34 104-34 22 33 22 33" class="g"/><circle cx="3771" cy="258" r="43" class="g"/><circle cx="3657" cy="231" r="43" class="g"/><path d="M62 105s18-33 23-34l50-4c5 0 39 13 40 18s-37 100-40 100-74-76-73-80 32 0 34 1 34-5 41-6 31-10 31-10" class="g"/><path d="M121 67s17 25 17 30c2 7-4 84-4 84M106 70s-9 32-9 36 37 78 37 78M3045 3183a63 63 0 1 1-63-63 63 63 0 0 1 63 63zM2929 3149c31 33 64 59 103 73M3043 3166c-26 18-47 46-66 79M2991 3120c-14 26-39 47-71 66" class="g"/><path d="M3028 3139l-37 31-41 36-10 23M3805 4925v-24c-1-49 7-80 39-75 6 1 22 3 22 14" class="g"/><path d="M3805 4901c0-2 57-69 57-69l126 34-56 69z" class="g"/><path d="M3995 4915c0-8-7-49-7-49-34-11-54 9-56 69l6 27M3805 1681v-24c-1-49 7-80 39-75 6 1 22 3 22 14" class="g"/><path d="M3805 1657c0-2 57-69 57-69l126 34-56 69z" class="g"/><path d="M3995 1671c0-8-7-49-7-49-34-11-54 9-56 69l6 27M2764 4497c2-2 79-32 85-29s21 65 21 75-55 20-64 24c-27 5-43-57-42-70zM2863 4485c40-3 50 29 15 49M2874 4519c18-10 15-24-5-20M2761 4472s3-10 0-13-8-2-11-5 5-16 5-16M2785 4468s2-10 0-13-8-2-11-5 5-16 5-16M2811 4458s4-8 0-12-9-2-11-6 6-16 6-16M2835 4451v-13c0-3-10-3-11-5s6-17 6-17M1493 172c2-2 79-32 85-29s21 65 21 75-55 20-64 24c-27 5-43-57-42-70zM1592 160c40-3 50 29 15 49M1603 194c18-10 15-24-5-20M1490 147s3-10 0-13-8-2-11-5 5-16 5-16M1514 143s2-10 0-13-8-2-11-5 5-16 5-16M1540 133s4-8 0-12-9-2-11-6 6-16 6-16M1564 126v-13c0-3-10-3-11-5s6-17 6-17" class="g"/><path fill="#12b2aa" d="M2318 3008c-7 0-16-3-20-6-3-2-3-11 0-33 2-12 4-33 2-35s-21-5-40-4c-14 0-19 2-20 3-2 2-2 19-2 31 0 16 0 26-2 29l-1 2c-3 5-6 9-12 9h-2c-6 0-17 0-21-12-2-6 3-37 9-72l4-30c1-9-2-22-6-27a4 4 0 0 0-3-1c-12 0-22-1-29-6-8-4-12-9-13-16-1-9 5-20 28-25 10-2 21-4 28 0 5 3 10 15 14 27l2 6c3 5 3 18 3 26v3c4-16 10-27 16-33 9-10 21-15 32-15 17 1 37 16 37 55 0 5 1 7 2 9a21 21 0 0 1 4 8v12a46 46 0 0 0 0 5l-1 8c0 9 0 20-2 27-2 5-1 13-1 20l1 9a66 66 0 0 0 1 10c1 7 2 12-2 15a11 11 0 0 1-6 1zm-18-9c5 4 18 7 22 5v-11a70 70 0 0 1-1-11l-1-9c0-7-1-15 1-21s2-17 2-26l1-8a53 53 0 0 1 0-6v-10a17 17 0 0 0-3-7c-2-2-4-5-4-11 1-36-17-50-32-51-20-1-43 19-45 57-1 1-1 2-3 2s-2-1-3-6v-4l-1-8c0-7-1-20-3-25l-2-5c-3-8-8-22-12-25-6-3-15-2-25 0-20 5-26 14-25 21 1 10 15 19 37 18a8 8 0 0 1 6 2c6 6 8 21 8 30l-5 30c-4 26-10 65-8 71 3 9 11 9 17 9h2c4 0 5-2 9-7l1-2 1-27c0-19 0-30 3-34 2-2 10-4 23-4 14-1 38 0 43 5 3 3 2 15-1 39-1 11-3 26-2 29z"/><path d="M3923 1018c-13 9-18 21 5 40q31-20-5-40z" class="g"/><path d="M3930 1022q91-60 73 14c7 34-8 45-63 13M3912 1027c-51-41-75-39-71 8-18 50 7 54 76 14M3924 3180c-13 9-18 21 5 40q31-20-5-40z" class="g"/><path d="M3931 3184q91-60 73 14c7 34-8 45-63 13M3913 3189c-51-41-75-39-71 8-18 50 7 54 76 14" class="g"/></svg>